<?xml version="1.0" encoding="UTF-8" standalone="no"?>
<!-- Created with Inkscape (http://www.inkscape.org/) -->

<svg
   width="180"
   height="180"
   viewBox="0 0 180 180"
   version="1.1"
   id="svg5"
   xml:space="preserve"
   inkscape:version="1.2.2 (b0a8486541, 2022-12-01)"
   sodipodi:docname="cup.svg"
   xmlns:inkscape="http://www.inkscape.org/namespaces/inkscape"
   xmlns:sodipodi="http://sodipodi.sourceforge.net/DTD/sodipodi-0.dtd"
   xmlns="http://www.w3.org/2000/svg"
   xmlns:svg="http://www.w3.org/2000/svg"><sodipodi:namedview
     id="namedview7"
     pagecolor="#505050"
     bordercolor="#eeeeee"
     borderopacity="1"
     inkscape:showpageshadow="0"
     inkscape:pageopacity="0"
     inkscape:pagecheckerboard="0"
     inkscape:deskcolor="#505050"
     inkscape:document-units="px"
     showgrid="false"
     inkscape:zoom="1.5694444"
     inkscape:cx="116.92036"
     inkscape:cy="71.04425"
     inkscape:window-width="1920"
     inkscape:window-height="1052"
     inkscape:window-x="1366"
     inkscape:window-y="1080"
     inkscape:window-maximized="1"
     inkscape:current-layer="layer1" /><defs
     id="defs2" /><g
     inkscape:label="Capa 1"
     inkscape:groupmode="layer"
     id="layer1"><path
       style="fill:#1d1d1b;stroke-width:0.768817;fill-opacity:1"
       d="m 47.065427,175.09994 c -1.090482,-1.20496 -1.272384,-3.50526 -1.272384,-16.09023 0,-17.71174 -0.304221,-17.10056 8.511901,-17.10056 h 6.095619 l 0.01176,-6.34274 c 0.0062,-3.4885 0.265949,-6.6997 0.576612,-7.13599 0.310664,-0.43629 2.878197,-1.91754 5.705636,-3.29166 3.542601,-1.7217 5.863482,-3.48112 7.465427,-5.65942 2.469278,-3.35771 4.683194,-11.02814 3.474814,-12.03898 -0.387584,-0.32422 -2.780503,-1.40247 -5.317599,-2.39609 C 58.738616,99.726362 48.294946,88.763975 43.573081,74.872475 c -1.213601,-3.57035 -1.85524,-4.28035 -6.292866,-6.9633 -12.156275,-7.34956 -19.672644,-18.7015 -21.373705,-32.280633 -0.553295,-4.416834 -0.472246,-5.943377 0.388229,-7.312076 1.051503,-1.672549 1.481587,-1.729838 12.986455,-1.729838 h 11.89894 V 15.850242 c 0,-9.8279001 0.125832,-10.8037301 1.487091,-11.5322521 2.052634,-1.098536 92.612925,-1.098536 94.665555,0 1.36126,0.728522 1.48709,1.704352 1.48709,11.5322521 v 10.736386 h 11.89894 c 11.50487,0 11.93495,0.05729 12.98645,1.729838 0.86048,1.368699 0.94153,2.895242 0.38823,7.312076 -1.70106,13.579133 -9.21743,24.931073 -21.3737,32.280633 -4.43762,2.68295 -5.07927,3.39295 -6.29287,6.9633 -4.19676,12.34665 -12.87723,22.30282 -24.53195,28.137185 -3.88263,1.94365 -7.54312,3.53392 -8.13441,3.53392 -1.43497,0 -1.43288,5.34358 0.003,8.78118 1.72819,4.13615 6.3454,8.67809 10.31041,10.1423 5.52032,2.03857 5.52504,2.04678 5.52504,9.61687 v 6.82522 h 6.38118 c 3.93805,0 6.7344,0.35323 7.30376,0.92258 0.65686,0.65686 0.92258,5.40988 0.92258,16.50252 0,14.61657 -0.0919,15.62914 -1.48709,16.3758 -0.97197,0.52037 -15.83365,0.79586 -42.934219,0.79586 -39.177269,0 -41.517186,-0.077 -42.719877,-1.40597 z m 80.222203,-15.89241 v -9.61021 H 90.38442 53.481211 v 9.61021 9.61021 h 36.903209 36.90321 z m -52.331596,1.8248 c -0.635127,-1.18676 -0.647059,-2.13509 -0.04351,-3.45968 0.830999,-1.82386 0.838633,-1.82479 14.917261,-1.82479 14.780895,0 15.930995,0.24976 15.930995,3.45967 0,3.20875 -1.15231,3.45968 -15.887465,3.45968 -13.533882,0 -14.073976,-0.0592 -14.917261,-1.63488 z m 37.573986,-23.15947 0.23433,-3.65188 H 90.426543 68.088731 v 3.85588 3.85587 l 22.103485,-0.20399 22.103484,-0.204 z M 99.671057,123.26534 c -2.55712,-3.80898 -4.673736,-9.65311 -4.673736,-12.90455 0,-2.2728 -0.01369,-2.27958 -4.598255,-2.27958 -4.404021,0 -4.615623,0.0893 -5.009557,2.11425 -1.329131,6.83221 -2.206304,9.37338 -4.25391,12.32355 -1.255893,1.80947 -2.283432,3.45281 -2.283432,3.65188 0,0.19906 5.177805,0.36192 11.506244,0.36192 h 11.506239 z m 0.996573,-23.719398 c 12.20416,-3.283897 23.255,-13.369657 28.26865,-25.799957 1.77446,-4.39938 1.8156,-5.07591 2.03782,-33.512858 l 0.2268,-29.022836 H 90.034608 48.86831 v 27.537866 c 0,29.996148 0.146552,31.267268 4.628869,40.148688 5.42518,10.74964 17.105291,19.2611 29.461377,21.468885 4.455817,0.79617 13.209561,0.39094 17.709074,-0.819788 z M 75.011827,71.953825 c -0.594372,-1.1106 -0.518306,-3.2728 0.277212,-7.87926 l 1.096379,-6.34863 -4.437388,-4.0156 c -7.545345,-6.828157 -6.638879,-9.67244 3.534044,-11.088977 l 6.240133,-0.868911 2.933497,-6.016755 c 4.40426,-9.033338 6.530699,-9.031896 11.07563,0.0075 l 2.998883,5.964497 6.315573,0.893137 c 10.17862,1.439446 10.8539,3.382948 3.6877,10.613439 l -4.71545,4.75773 1.02007,6.28131 c 1.59499,9.82153 -0.23251,11.09248 -9.348692,6.50165 l -5.596495,-2.81835 -5.135727,2.77392 c -5.82488,3.14615 -8.73246,3.50963 -9.945369,1.24329 z m 18.395865,-10.79696 c 1.686308,0.86028 3.201985,1.56416 3.368185,1.56416 0.1662,0 0.13381,-1.75223 -0.072,-3.89384 -0.34435,-3.58376 -0.1763,-4.09797 2.11043,-6.45727 l 2.484573,-2.56343 -2.574183,-0.51948 c -4.800405,-0.968753 -5.289219,-1.282239 -6.889004,-4.418073 l -1.598224,-3.132768 -1.656354,2.922748 c -1.898155,3.349399 -2.809388,3.955313 -6.948997,4.620643 l -2.986185,0.47995 2.855586,2.92438 c 2.70665,2.77186 2.827816,3.10962 2.323018,6.47582 l -0.532567,3.55143 3.524864,-1.55922 3.524864,-1.55921 3.066003,1.56416 z M 41.005674,47.536887 40.795733,33.890388 32.038456,33.671994 23.281171,33.453599 23.7702,37.131669 c 0.828146,6.228668 5.232083,14.045686 10.900208,19.347936 2.765596,2.58708 5.369647,4.70378 5.786784,4.70378 0.478097,0 0.680826,-5.04411 0.548482,-13.646498 z m 104.323936,8.942718 c 5.66813,-5.30225 10.07206,-13.119268 10.90021,-19.347936 l 0.48903,-3.67807 -8.75729,0.218395 -8.75727,0.218394 -0.20994,13.646499 c -0.13235,8.602388 0.0703,13.646498 0.54848,13.646498 0.41713,0 3.02119,-2.1167 5.78678,-4.70378 z"
       id="path248" /></g></svg>
